<svg id="Layer_1" data-name="Layer 1" xmlns="http://www.w3.org/2000/svg" viewBox="0 0 490 490"><defs><style>.cls-1{fill:#fff;}</style></defs><path class="cls-1" d="M577.5,105h-455A17.5,17.5,0,0,0,105,122.5v455A17.5,17.5,0,0,0,122.5,595h455A17.49,17.49,0,0,0,595,577.5v-455A17.49,17.49,0,0,0,577.5,105Zm-315,455V446.25a17.5,17.5,0,0,0-35,0V560H140V140h87.5V376.25a17.5,17.5,0,0,0,35,0V262.5H376.25a17.5,17.5,0,0,0,0-35H262.5V140H560v87.5H446.25a17.5,17.5,0,0,0,0,35H560V560Z" transform="translate(-105 -105)"/><path class="cls-1" d="M486.65,306.37c-11-11-27.31-12-37.15-2.1l-131.95,132A17.41,17.41,0,0,0,313,444.3L298,503.21c-3.55,12.36,9,24.8,21.26,21.26l58.9-14.92a17.49,17.49,0,0,0,8.08-4.59L518.23,373c9.83-9.83,8.9-26.15-2.1-37.16ZM364.94,476.81l-25.77,6.51,6.53-25.75,74.47-74.48,19.24,19.24Zm99.21-99.23-19.23-19.23L467,336.24l19.23,19.23Z" transform="translate(-105 -105)"/></svg>