<?xml version="1.0" encoding="utf-8"?>
<!-- Generator: Adobe Illustrator 26.0.3, SVG Export Plug-In . SVG Version: 6.00 Build 0)  -->
<svg version="1.1" id="Layer_1" xmlns="http://www.w3.org/2000/svg" xmlns:xlink="http://www.w3.org/1999/xlink" x="0px" y="0px"
	 viewBox="0 0 700 700" style="enable-background:new 0 0 700 700;" xml:space="preserve">
<style type="text/css">
	.st0{fill-rule:evenodd;clip-rule:evenodd;fill:#FFFFFF;}
</style>
<g>
	<path class="st0" d="M350,203.4c-20.3-11.6-42.7-17.9-66.3-17.9c-107.1,0-161.2,90.4-161.2,204.2c0,113.8,73.6,204.2,161.2,204.2
		h132.6c87.6,0,161.2-90.4,161.2-204.2c0-113.8-54-204.2-161.2-204.2C392.7,185.5,370.3,191.9,350,203.4L350,203.4z M340.2,238.5
		c5.9,4,13.7,4,19.6,0c16.9-11.5,36.1-18,56.5-18c86.9,0,126.2,76.9,126.2,169.2c0,92.3-55.1,169.2-126.2,169.2H283.7
		c-71.1,0-126.2-76.9-126.2-169.2c0-92.3,39.3-169.2,126.2-169.2C304.1,220.5,323.3,227.1,340.2,238.5L340.2,238.5z"/>
	<path class="st0" d="M332.5,214.5v0.2c0,1.2,0.1,2.4,0.4,3.6c0.5,2.4,1.4,4.3,2.5,5.9c3.1,4.8,8.5,7.9,14.7,7.9
		c0,0,17.5-1.4,17.5-17.8v-23c0-23.9,11.2-46.3,30.3-60.7c7.7-5.8,9.3-16.8,3.5-24.5c-5.8-7.7-16.8-9.3-24.5-3.5
		c-27.9,20.9-44.3,53.8-44.3,88.7v23L332.5,214.5z"/>
	<path class="st0" d="M332.5,213.4c0,0.4,0,0.8,0,1.2c0,9.7,7.8,17.5,17.5,17.5c0,0,17.5-3.2,17.5-20.2c0-47.7-30.5-90.1-75.8-105.1
		c-9.2-3.1-19.1,1.9-22.1,11.1c-3.1,9.2,1.9,19.1,11.1,22.1c31,10.3,51.8,39.3,51.8,71.9L332.5,213.4z"/>
	<path class="st0" d="M560,372.2H140c-9.7,0-17.5,7.8-17.5,17.5s7.8,17.5,17.5,17.5h420c9.7,0,17.5-7.8,17.5-17.5
		S569.7,372.2,560,372.2z"/>
	<path class="st0" d="M367.5,389.7v-70c0-9.7-7.8-17.5-17.5-17.5s-17.5,7.8-17.5,17.5v70c0,9.7,7.8,17.5,17.5,17.5
		S367.5,399.3,367.5,389.7z"/>
	<path class="st0" d="M397.4,482.3l-35-35c-6.8-6.8-17.9-6.8-24.7,0l-35,35c-6.8,6.8-6.8,17.9,0,24.7c6.8,6.8,17.9,6.8,24.7,0
		l22.6-22.6l22.6,22.6c6.8,6.8,17.9,6.8,24.7,0C404.2,500.2,404.2,489.1,397.4,482.3z"/>
	<path class="st0" d="M460.8,389.7V343c0-9.7-7.8-17.5-17.5-17.5s-17.5,7.8-17.5,17.5v46.7c0,9.7,7.8,17.5,17.5,17.5
		S460.8,399.3,460.8,389.7z"/>
	<path class="st0" d="M274.2,389.7V343c0-9.7-7.8-17.5-17.5-17.5c-9.7,0-17.5,7.8-17.5,17.5v46.7c0,9.7,7.8,17.5,17.5,17.5
		C266.3,407.2,274.2,399.3,274.2,389.7z"/>
</g>
</svg>
