<?xml version="1.0" encoding="utf-8"?>
<!-- Generator: Adobe Illustrator 26.0.3, SVG Export Plug-In . SVG Version: 6.00 Build 0)  -->
<svg version="1.1" id="Layer_1" xmlns="http://www.w3.org/2000/svg" xmlns:xlink="http://www.w3.org/1999/xlink" x="0px" y="0px"
	 viewBox="0 0 700 700" style="enable-background:new 0 0 700 700;" xml:space="preserve">
<style type="text/css">
	.st0{fill-rule:evenodd;clip-rule:evenodd;fill:#FFFFFF;}
</style>
<path class="st0" d="M318.3,103.6c-5.2,0.5-9.3,4.6-10,9.8l-5.4,41.5c-20.6,5-40,13-57.6,23.8l-33.2-25.6h0
	c-4.5-3.4-10.8-2.9-14.7,1.1l-21.7,21.5l-21.5,21.7c-4,3.9-4.4,10.2-1.1,14.7l25.6,33.2c-10.7,17.6-18.8,36.9-23.8,57.6l-41.5,5.4
	c-5.6,0.7-9.8,5.4-9.8,11v61.2c0,5.6,4.2,10.3,9.8,11l41.5,5.4c5,20.6,13,40,23.8,57.6l-25.6,33.2c-3.4,4.5-2.9,10.8,1.1,14.7
	l21.5,21.5h0.2l21.5,21.7l0,0c3.9,4,10.2,4.4,14.7,1.1l33.2-25.6c17.6,10.8,36.9,18.8,57.6,23.8l5.4,41.5v0c0.7,5.6,5.4,9.8,11,9.8
	h61.2c5.6,0,10.3-4.2,11-9.8l5.4-41.5c20.6-5,40-13,57.6-23.8l33.2,25.6v0c4.5,3.4,10.8,2.9,14.7-1.1l21.5-21.7l21.7-21.5v0
	c4-3.9,4.4-10.2,1.1-14.7l-25.6-33.2c10.8-17.6,18.8-36.9,23.8-57.6l41.5-5.4c5.6-0.7,9.8-5.4,9.8-11v-61.2c0-5.6-4.2-10.3-9.8-11
	l-41.5-5.4c-5-20.6-13-40-23.8-57.6l25.6-33.2c3.4-4.5,2.9-10.8-1.1-14.7l-43.2-43.2v0c-3.9-4-10.2-4.4-14.7-1l-33.2,25.6
	c-17.6-10.8-36.9-18.8-57.6-23.8l-5.4-41.5c-0.7-5.6-5.4-9.8-11-9.8h-61.2C319,103.6,318.7,103.6,318.3,103.6L318.3,103.6z M350,238
	c61.7,0,112,50.3,112,112s-50.3,112-112,112c-61.8,0-112-50.3-112-112S288.2,238,350,238z"/>
</svg>
