<?xml version="1.0" encoding="utf-8"?>
<!-- Generator: Adobe Illustrator 26.0.3, SVG Export Plug-In . SVG Version: 6.00 Build 0)  -->
<svg version="1.1" id="Layer_1" xmlns="http://www.w3.org/2000/svg" xmlns:xlink="http://www.w3.org/1999/xlink" x="0px" y="0px"
	 viewBox="0 0 700 700" style="enable-background:new 0 0 700 700;" xml:space="preserve">
<style type="text/css">
	.st0{fill:#FFFFFF;}
</style>
<path class="st0" d="M159.6,395c0,49.6,19.3,97.2,53.7,132.8c34.5,35.6,81.4,56.5,130.9,58.1c49.5,1.7,97.8-16,134.5-49.2
	c36.7-33.2,59.1-79.5,62.4-128.9c3.3-49.4-12.7-98.2-44.7-136.1c-32-37.8-77.4-61.8-126.7-66.7v-39.2h38.2
	c10.5,0,19.1-8.6,19.1-19.1c0-10.6-8.6-19.1-19.1-19.1H293.3c-10.5,0-19.1,8.5-19.1,19.1c0,10.5,8.6,19.1,19.1,19.1h38.2V205h0
	c-47.1,4.7-90.8,26.8-122.6,61.9C177.1,302,159.6,347.6,159.6,395L159.6,395z M503.4,395c0,40.5-16.1,79.4-44.8,108.1
	c-28.7,28.7-67.5,44.8-108,44.8s-79.4-16.1-108-44.8c-28.7-28.7-44.8-67.5-44.8-108.1c0-40.5,16.1-79.4,44.8-108
	c28.7-28.7,67.5-44.8,108-44.8s79.4,16.1,108,44.8C487.3,315.6,503.4,354.5,503.4,395z"/>
<path class="st0" d="M541.6,261.3c7.7,0,14.6-4.7,17.6-11.8c2.9-7.1,1.3-15.3-4.1-20.8l-57.3-57.3l0,0c-7.6-6.5-18.9-6.1-25.9,1
	c-7.1,7.1-7.5,18.4-1,25.9l57.3,57.3v0C531.7,259.3,536.5,261.3,541.6,261.3L541.6,261.3z"/>
<path class="st0" d="M203.4,171.4l-57.3,57.3l0,0c-4,3.5-6.5,8.5-6.7,13.8c-0.2,5.3,1.8,10.5,5.6,14.2c3.8,3.8,8.9,5.8,14.2,5.6
	c5.3-0.2,10.3-2.6,13.8-6.7l57.3-57.3v0c6.5-7.6,6.1-18.9-1-25.9C222.3,165.4,211,164.9,203.4,171.4L203.4,171.4z"/>
<path class="st0" d="M337.1,408.5c7.4,7.4,19.5,7.4,26.9,0l57.3-57.3c6.5-7.6,6.1-18.9-1-25.9c-7.1-7.1-18.4-7.5-25.9-1l-57.3,57.3
	h0C329.7,389,329.7,401,337.1,408.5L337.1,408.5z"/>
</svg>
