<?xml version="1.0" encoding="utf-8"?>
<!-- Generator: Adobe Illustrator 26.0.3, SVG Export Plug-In . SVG Version: 6.00 Build 0)  -->
<svg version="1.1" id="Layer_1" xmlns="http://www.w3.org/2000/svg" xmlns:xlink="http://www.w3.org/1999/xlink" x="0px" y="0px" viewBox="0 0 700 700" style="enable-background: new 0 0 700 700" xml:space="preserve">
<style>.st0 {
  fill-rule: evenodd;
  clip-rule: evenodd;
  fill: #fff;
}

</style>
<g>
	<path class="st0" d="M347.6,96.2c-166.6,0-301.9,135.3-301.9,301.9S180.9,700,347.6,700s301.9-135.3,301.9-301.9
		S514.2,96.2,347.6,96.2L347.6,96.2z M347.6,145.2c139.6,0,252.9,113.3,252.9,252.9S487.2,651,347.6,651S94.6,537.7,94.6,398.1
		S207.9,145.2,347.6,145.2L347.6,145.2z"></path>
	<path class="st0" d="M372,120.7V24.5C372,10.9,361.1,0,347.6,0s-24.5,10.9-24.5,24.5v96.2c0,13.6,10.9,24.5,24.5,24.5
		S372,134.2,372,120.7z"></path>
	<path class="st0" d="M157.4,189l-68.1-68.1c-9.5-9.5-25-9.5-34.7,0c-9.5,9.5-9.5,25,0,34.7l68.1,68.1c9.5,9.5,25,9.5,34.7,0
		C167.1,214,167.1,198.6,157.4,189z"></path>
	<path class="st0" d="M577,221.3l68.1-68.1c9.5-9.5,9.5-25,0-34.6s-25-9.5-34.6,0l-68.1,68.1c-9.5,9.5-9.5,25,0,34.6
		C551.9,230.8,567.5,230.8,577,221.3z"></path>
	<path class="st0" d="M298.6,49h97.9C410.1,49,421,38,421,24.5S410.1,0,396.5,0h-97.9c-13.6,0-24.5,10.9-24.5,24.5S285,49,298.6,49z
		"></path>
	<path class="st0" d="M54.8,190.1l69.2-69.2c9.5-9.5,9.5-25,0-34.7c-9.5-9.5-25-9.5-34.7,0l-69.1,69.4c-9.5,9.5-9.5,25,0,34.6
		C29.7,199.8,45.3,199.8,54.8,190.1L54.8,190.1z"></path>
	<path class="st0" d="M679.8,153.2l-69.2-69.2c-9.5-9.5-25-9.5-34.7,0c-9.5,9.5-9.5,25,0,34.7l69.2,69.2c9.5,9.5,25,9.5,34.7,0
		C689.3,178.2,689.3,162.7,679.8,153.2z"></path>
	<path class="st0" d="M306.7,251.2v163.2c0,13.6,10.9,24.5,24.5,24.5h130.5c13.6,0,24.5-10.9,24.5-24.5c0-13.6-10.9-24.5-24.5-24.5
		h-106V251.2c0-13.6-10.9-24.5-24.5-24.5C317.6,226.8,306.7,237.8,306.7,251.2L306.7,251.2z"></path>
</g>
</svg>
