<svg id="Layer_1" data-name="Layer 1" xmlns="http://www.w3.org/2000/svg" viewBox="0 0 437 483.84"><defs><style>.cls-1 {
  fill: #fff;
}

</style></defs><path class="cls-1" d="M561.12,229c-17.36-29.68-66.08-36.4-127.68-22.4-19-59.92-49.28-98.56-84-98.56s-65,38.08-83.44,98.56c-61.6-14-110.32-7.28-127.68,22.4-7.28,12.88-9,28-3.92,45.36,6.16,23,23.52,49.28,48.16,75.6-24.64,26.32-42,52.64-48.16,75.6C129.92,443,131,458.08,138.32,471c11.76,20.16,37,29.68,71.68,29.68a241,241,0,0,0,56.56-7.28C285,553.28,315.28,591.92,350,591.92s65-38.08,83.44-98.56c20.72,4.48,39.76,7.28,56.56,7.28,34.16,0,59.92-9.52,71.68-29.68,7.28-12.88,9-28,3.92-45.36-6.16-23-23.52-49.28-48.16-75.6,24.64-26.32,42-52.64,48.16-75.6,3.92-17.36,2.8-32.48-4.48-45.36ZM349.44,130.48c25.76,0,47.6,34.16,61.6,81.76a468.34,468.34,0,0,0-61.6,23,468.34,468.34,0,0,0-61.6-23C301.84,164.64,323.68,130.48,349.44,130.48ZM430.08,350a410,410,0,0,1-2.24,45.36c-12.32,8.4-25.2,16.24-38.64,24.08-12.88,7.28-26.88,14.56-40.32,20.72-14-6.16-27.44-13.44-40.32-20.72-13.44-7.84-26.32-15.68-38.64-24.08-1.12-15.12-2.24-30.24-2.24-45.36a410,410,0,0,1,2.24-45.36c12.32-8.39,25.2-16.23,38.64-24.07,12.88-7.29,26.88-14.56,40.32-20.72,14,6.16,27.44,13.44,40.32,20.72,13.44,7.84,26.32,15.68,38.64,24.07A410,410,0,0,1,430.08,350Zm21.84-28a413.3,413.3,0,0,1,33,28c-10.08,9.52-21.28,18.48-33,28,.56-9,.56-18.48.56-28S452.48,331,451.92,322ZM425,423.92c-2.24,14.56-4.48,28.56-7.84,41.44-13.44-3.92-26.88-9-40.32-14,7.84-3.92,16.24-8.39,24.08-12.88C409.36,434,417.2,429,425,423.92Zm-103,28a382.88,382.88,0,0,1-40.32,14c-3.36-13.44-5.6-27.44-7.84-41.44,7.84,5,15.68,9.52,24.08,14.56,7.84,3.92,16.24,8.4,24.08,12.88ZM247,378a413.3,413.3,0,0,1-33-28c10.08-9.52,21.29-18.48,33-28-.55,9-.55,18.48-.55,28S246.41,369,247,378Zm26.88-101.92c2.24-14.56,4.48-28.56,7.84-41.44,13.44,3.92,26.88,9,40.32,14-7.84,3.92-16.24,8.4-24.08,12.88-8.4,4.48-16.24,9.52-24.08,14.56ZM401,261.52c-7.84-4.48-16.24-9-24.08-12.88a383.67,383.67,0,0,1,40.32-14c3.36,13.44,5.61,27.44,7.84,41.44C417.2,271,409.36,266,401,261.52Zm-243.6-21.28c7.84-13.44,25.76-19,49.28-19,15.68,0,33.61,2.8,53.2,7.28-5,19.6-8.4,41.44-10.64,64.4a503.72,503.72,0,0,0-51.52,41.44c-21.84-23.52-37-45.92-42-65.52q-5-17.64,1.68-28.56Zm0,219.52c-4.48-7.28-5-16.8-1.68-28,5-20.16,20.16-42.56,42-66.08a503.72,503.72,0,0,0,51.52,41.44,532.71,532.71,0,0,0,10.64,64.4c-49.28,11.76-89.6,10.08-102.48-11.76ZM349.44,569.52c-25.76,0-47.6-34.16-61.6-81.76a466.8,466.8,0,0,0,61.6-23,466.8,466.8,0,0,0,61.6,23C397,535.36,375.2,569.52,349.44,569.52ZM541.52,459.76c-12.88,22.4-53.76,23.52-102.48,11.76,5-19.6,8.4-41.44,10.64-64.4a503.72,503.72,0,0,0,51.52-41.44c21.85,23.52,37,45.92,42,65.52q5,17.64-1.69,28.56Zm1.69-191c-5.05,19.6-20.16,42-42,65.52a503.72,503.72,0,0,0-51.52-41.44,532.71,532.71,0,0,0-10.64-64.4c19.6-4.48,37.52-7.28,53.19-7.28,23.52,0,41.45,5.6,49.29,19q6.71,10.92,1.68,28.56Z" transform="translate(-131.5 -108.08)"></path><path class="cls-1" d="M349.44,305.2a44.8,44.8,0,1,0,44.8,44.8,44.93,44.93,0,0,0-44.8-44.8Zm0,67.2a22.4,22.4,0,1,1,22.4-22.4A22.47,22.47,0,0,1,349.44,372.4Z" transform="translate(-131.5 -108.08)"></path></svg>