<?xml version="1.0" encoding="utf-8"?>
<!-- Generator: Adobe Illustrator 26.0.3, SVG Export Plug-In . SVG Version: 6.00 Build 0)  -->
<svg version="1.1" id="Layer_1" xmlns="http://www.w3.org/2000/svg" xmlns:xlink="http://www.w3.org/1999/xlink" x="0px" y="0px" viewBox="0 0 700 700" style="enable-background: new 0 0 700 700" xml:space="preserve">
<style>.st0 {
  fill-rule: evenodd;
  clip-rule: evenodd;
  fill: #fff;
}

</style>
<path class="st0" d="M83.3,294.9c0,116.9,94.7,211.6,211.6,211.6c44.7,0,86.2-13.9,120.3-37.5l139.8,139.8c10.5,10.5,27.5,10.5,38,0
	l15.8-15.8c10.5-10.5,10.5-27.5,0-38L469,415.3c23.7-34.2,37.5-75.6,37.5-120.3c0-116.9-94.7-211.6-211.6-211.6
	C178.1,83.3,83.3,178.1,83.3,294.9L83.3,294.9z M135.5,294.9c0-88.1,71.4-159.5,159.5-159.5s159.5,71.4,159.5,159.5
	c0,88.1-71.4,159.5-159.5,159.5C206.9,454.4,135.5,383,135.5,294.9L135.5,294.9z"></path>
</svg>
